<svg width="60" height="60" viewBox="0 0 60 60" fill="none" xmlns="http://www.w3.org/2000/svg">
<path fill-rule="evenodd" clip-rule="evenodd" d="M3.30917 1.05984e-07H56.6881C58.5164 -0.000457551 59.9991 1.48132 60 3.30917V56.688V56.6894C59.9995 58.5181 58.5168 60.0004 56.6881 59.9999H41.4258V36.7971H49.248L50.4199 27.7151H41.4258V21.9308C41.4258 19.3073 42.1541 17.5198 45.916 17.5198H50.6836V9.41874C49.8541 9.30842 47.0082 9.06169 43.6967 9.06169C36.7827 9.06169 32.0508 13.2804 32.0508 21.0313V27.7151H24.2578V36.7971H32.0508V59.9999H3.31192C1.48361 60.0004 0.000915739 58.5186 1.05984e-07 56.6907V3.31192C-0.000457552 1.48361 1.48132 0.000915738 3.30917 1.05984e-07Z" fill="black"/>
</svg>
